<svg width="1280" height="832"  xmlns="http://www.w3.org/2000/svg">
<path fill-rule="evenodd" clip-rule="evenodd" d="M603 186L925 419.681L599.874 660L281 415.383L603 186ZM520.155 347.383C495.146 345.038 491.238 346.998 472.871 350.515C449.816 355.204 438.488 378.259 425.978 394.672C411.91 412.257 398.233 440.392 373.223 447.426L372.436 454.46C381.815 455.241 393.538 452.897 402.135 447.426C407.215 441.564 411.905 435.312 416.594 429.45H464.66L457.626 454.46H492.796L520.155 347.383ZM707.337 346.998C686.626 351.296 670.214 365.755 663.57 384.512H654.192L650.68 395.453H660.835L642.083 454.46H676.471L694.051 395.453H704.602L708.114 384.512H697.177C700.303 375.133 703.43 370.444 706.947 366.536C714.762 357.939 726.095 355.985 737.427 355.985L738.6 349.733C728.049 345.044 717.498 345.825 707.337 346.998ZM485.376 363.801C474.825 364.192 465.837 368.099 459.976 374.352C449.034 385.293 440.437 400.924 433.012 414.992H468.182L485.376 363.801ZM567.439 380.213C549.854 384.121 540.085 391.936 532.66 400.924C523.276 412.647 518.201 433.749 527.575 447.426C538.126 461.494 560.791 460.712 576.813 454.46C577.203 464.62 570.169 472.039 565.871 475.561C554.538 484.549 540.08 480.647 526.793 477.911L526.006 485.331C546.327 493.928 575.64 492.755 593.611 483.377C601.426 479.078 610.023 472.044 613.155 460.327L636.596 382.173H602.995L599.868 390.379L596.742 389.988C591.667 382.949 576.818 377.869 567.439 380.213ZM751.099 380.213C736.255 381.386 721.015 392.718 713.59 406.786C708.901 415.773 702.643 443.122 717.101 451.334C731.175 459.144 753.444 458.367 765.167 448.598V454.46H797.211L818.307 384.903H782.361L780.798 389.988C772.597 382.167 762.437 379.432 751.099 380.213ZM565.876 393.109C553.371 395.063 544.774 404.05 539.694 414.992C536.177 422.807 535.786 434.14 540.867 441.564C544.774 447.035 553.762 449.771 561.968 447.811C572.916 445.076 582.289 436.088 587.76 426.319C592.058 418.894 592.845 405.613 587.76 399.746C582.289 393.499 572.91 392.327 565.876 393.109ZM750.323 393.109C737.427 395.453 727.267 404.832 722.578 416.17C719.066 425.152 719.842 438.444 726.876 443.909C731.18 447.035 737.823 448.994 744.852 447.817C756.184 445.868 765.172 438.047 770.252 428.278C774.551 420.468 776.901 410.303 771.816 400.924C767.517 393.499 758.138 391.936 750.323 393.109Z" fill="#C81414"/>
</svg>
