<svg width="287" height="204" viewBox="0 0 287 204" fill="none" xmlns="http://www.w3.org/2000/svg">
<path d="M28.2553 79.9822C8.18766 79.9822 0 71.4058 0 50.3846V29.9317C0 8.91045 8.18766 0.334015 28.2553 0.334015H64.7203C81.345 0.334015 89.7747 7.13209 89.7747 20.5339V28.5457H77.6747V23.5296C77.6747 12.5991 71.808 11.7961 62.1353 11.7961H29.2893C17.9557 11.7961 13.3357 15.9395 13.3357 26.0963V54.1943C13.3357 64.3511 17.9557 68.4944 29.2893 68.4944H62.4397C76.0833 68.4944 78.3897 65.6454 78.3897 57.0873V50.8429H91.1057V57.5126C91.1057 71.3838 86.603 79.9822 64.1923 79.9822H28.2553Z" fill="#373C3C"/>
<path d="M127.365 79.1572V38.2368H187.84C195.697 38.2368 199.041 35.5344 199.041 29.2057V22.1033C199.041 15.0375 196.009 12.6542 187.018 12.6542H127.365V1.16269H189.38C203.94 1.16269 212.37 4.75606 212.37 23.1189C212.37 39.6191 211.167 49.7209 187.418 49.7209H140.694V79.1572H127.365Z" fill="#373C3C"/>
<path d="M115.35 1.16269H102.014V79.1572H115.35V1.16269Z" fill="#373C3C"/>
<path d="M272.459 1.15903L205.44 56.398V66.6061H272.466V79.1572H285.685V1.15903H272.459ZM272.459 25.5243V54.6233H226.34L272.459 16.6032V25.5243Z" fill="#373C3C"/>
<path d="M14.6887 93.3401H272.338C276.056 93.3401 279.621 94.8169 282.25 97.4458C284.879 100.075 286.356 103.64 286.356 107.358V148.146C286.356 151.863 284.879 155.428 282.251 158.056C279.623 160.684 276.058 162.16 272.342 162.16H14.6887C10.9719 162.16 7.40742 160.684 4.77929 158.056C2.15115 155.428 0.674683 151.863 0.674683 148.146L0.674683 107.354C0.674683 103.637 2.15115 100.073 4.77929 97.4447C7.40742 94.8165 10.9719 93.3401 14.6887 93.3401Z" fill="#C81414"/>
<path d="M125.022 146.797H117.718C114.253 146.855 110.906 145.537 108.411 143.131C105.916 140.725 104.477 137.429 104.408 133.964V121.552C104.477 118.087 105.916 114.79 108.411 112.384C110.906 109.979 114.253 108.66 117.718 108.718H124.993C125.599 108.718 126.18 108.478 126.608 108.049C127.037 107.621 127.277 107.04 127.277 106.434C127.277 105.828 127.037 105.247 126.608 104.819C126.18 104.39 125.599 104.15 124.993 104.15H117.718C113.015 104.072 108.473 105.862 105.088 109.127C101.702 112.393 99.7489 116.867 99.6563 121.57V125.479H54.318C54.1776 123.871 53.4349 122.376 52.2389 121.293C51.0429 120.21 49.4818 119.619 47.8683 119.638H23.6683C21.9849 119.612 20.3596 120.253 19.1467 121.421C17.9338 122.588 17.2315 124.188 17.193 125.871V129.611C17.2325 131.294 17.935 132.893 19.1477 134.061C20.3605 135.228 21.9852 135.869 23.6683 135.845H47.8683C49.4795 135.864 51.0386 135.275 52.2343 134.195C53.4299 133.114 54.1741 131.623 54.318 130.018H99.6563V133.938C99.7489 138.641 101.702 143.115 105.088 146.381C108.473 149.646 113.015 151.436 117.718 151.358H125.022C125.605 151.325 126.153 151.071 126.553 150.647C126.954 150.222 127.177 149.661 127.177 149.078C127.177 148.494 126.954 147.933 126.553 147.509C126.153 147.085 125.605 146.83 125.022 146.797Z" fill="#F5F5F5"/>
<path d="M263.347 119.638H239.173C237.561 119.617 236 120.207 234.804 121.288C233.607 122.369 232.863 123.862 232.72 125.468H187.374V121.555C187.283 116.851 185.331 112.375 181.945 109.108C178.559 105.841 174.016 104.05 169.312 104.127H162.008C161.4 104.127 160.817 104.369 160.388 104.799C159.958 105.228 159.716 105.811 159.716 106.419C159.716 107.027 159.958 107.61 160.388 108.04C160.817 108.469 161.4 108.711 162.008 108.711H169.312C172.777 108.654 176.124 109.972 178.619 112.378C181.115 114.783 182.555 118.079 182.626 121.544V133.938C182.556 137.403 181.116 140.7 178.62 143.106C176.125 145.511 172.778 146.829 169.312 146.771H162.008C161.4 146.771 160.817 147.013 160.388 147.442C159.958 147.872 159.716 148.455 159.716 149.063C159.716 149.671 159.958 150.254 160.388 150.683C160.817 151.113 161.4 151.355 162.008 151.355H169.312C174.014 151.432 178.556 149.643 181.941 146.378C185.327 143.113 187.28 138.64 187.374 133.938V130.044H232.712C232.857 131.649 233.602 133.14 234.798 134.22C235.995 135.301 237.554 135.89 239.166 135.87H263.366C265.052 135.894 266.678 135.25 267.892 134.079C269.105 132.907 269.805 131.304 269.841 129.618V125.871C269.802 124.188 269.099 122.589 267.886 121.422C266.674 120.254 265.049 119.613 263.366 119.638M265.093 129.622C265.079 130.071 264.891 130.497 264.569 130.809C264.246 131.121 263.815 131.295 263.366 131.294H239.173C238.725 131.294 238.294 131.12 237.972 130.808C237.65 130.495 237.463 130.07 237.45 129.622V125.871C237.463 125.424 237.651 124.999 237.973 124.688C238.295 124.377 238.725 124.204 239.173 124.206H263.373C263.821 124.203 264.253 124.376 264.576 124.687C264.898 124.998 265.087 125.423 265.1 125.871L265.093 129.622Z" fill="#F5F5F5"/>
<path d="M172.997 129.486V126.01C172.996 124.916 172.618 123.855 171.927 123.007C171.235 122.158 170.273 121.573 169.202 121.35C160.737 122.888 152.135 123.543 143.535 123.304C134.928 123.544 126.319 122.889 117.847 121.35C116.775 121.573 115.813 122.158 115.122 123.007C114.431 123.855 114.053 124.916 114.052 126.01V129.486C114.053 130.581 114.431 131.641 115.122 132.49C115.813 133.339 116.775 133.924 117.847 134.147C126.319 132.608 134.928 131.953 143.535 132.192C152.135 131.954 160.737 132.609 169.202 134.147C170.273 133.924 171.235 133.339 171.927 132.49C172.618 131.641 172.996 130.581 172.997 129.486Z" fill="#F5F5F5"/>
<path d="M22.9314 187.886V194.438C22.9314 202.23 19.9137 203.726 12.54 203.726C5.00136 203.726 2.24036 202.428 2.24036 194.438V187.875C2.24036 180.307 4.80702 178.976 12.54 178.976C19.5544 178.976 22.9314 180.047 22.9314 187.875M6.91902 187.875V194.438C6.91902 199.275 7.86136 199.733 12.54 199.733C16.7934 199.733 18.2564 199.147 18.2564 194.438V187.875C18.3517 183.295 16.6944 182.973 12.54 182.973C7.50569 182.973 7.01802 184.01 6.91902 187.875Z" fill="#373C3C"/>
<path d="M33.9387 195.487V203.554H29.2637V179.185H41.7047C47.0323 179.313 49.0783 180.971 49.0783 186.493C49.0783 190.097 48.884 192.726 44.759 193.346V193.474C48.059 193.767 48.884 195.55 48.884 198.996V203.547H44.2053V198.996C44.2053 196.95 43.362 195.524 41.118 195.487H33.9387ZM40.1133 191.49C43.5527 191.49 44.3997 190.812 44.3997 187.237C44.3997 183.794 43.78 183.174 40.436 183.174H33.9387V191.505L40.1133 191.49Z" fill="#373C3C"/>
<path d="M76.1273 190.614V195.014C76.1273 202.223 74.294 203.719 65.637 203.719C57.838 203.719 54.9157 202.355 54.9157 194.105V188.535C54.9157 180.413 58.0983 179.002 65.637 179.002C71.5807 179.002 76.2703 178.708 76.0943 186.537H71.4487C71.4487 182.965 69.696 182.998 65.637 182.998C60.1773 182.998 59.6603 183.838 59.5943 188.55V194.138C59.6603 199.238 60.4377 199.759 65.637 199.759C70.0847 199.759 71.4487 199.66 71.4487 195.047V194.171H65.3107V190.629L76.1273 190.614Z" fill="#373C3C"/>
<path d="M86.7753 198.934L85.25 203.543H80.4063L88.473 179.185H95.3627L103.613 203.543H98.89L97.2987 198.934H86.7753ZM92.07 182.756H92.004L87.846 195.392H96.261L92.07 182.756Z" fill="#373C3C"/>
<path d="M126.654 179.185H131.333V203.547H123.57L113.205 183.178H113.04L113.428 203.547H108.757V179.185H116.486L126.914 199.55H127.043L126.654 179.185Z" fill="#373C3C"/>
<path d="M143.378 179.185H138.699V203.543H143.378V179.185Z" fill="#373C3C"/>
<path d="M168.681 183.178L155.206 199.451V199.55H168.85V203.543H149.417V199.572L162.8 183.295V183.167H150V179.185H168.7L168.681 183.178Z" fill="#373C3C"/>
<path d="M179.003 198.934L177.478 203.543H172.634L180.723 179.185H187.609L195.859 203.543H191.118L189.523 198.934H179.003ZM184.294 182.756H184.232L180.074 195.392H188.485L184.294 182.756Z" fill="#373C3C"/>
<path d="M208.721 203.543H204.043V183.178H196.896V179.181H215.868V183.178H208.721V203.543Z" fill="#373C3C"/>
<path d="M225.804 179.185H221.126V203.543H225.804V179.185Z" fill="#373C3C"/>
<path d="M252.985 187.886V194.438C252.985 202.23 249.968 203.726 242.594 203.726C235.055 203.726 232.294 202.428 232.294 194.438V187.875C232.294 180.307 234.861 178.976 242.594 178.976C249.608 178.976 252.985 180.047 252.985 187.875M236.973 187.875V194.438C236.973 199.275 237.915 199.733 242.594 199.733C246.847 199.733 248.31 199.147 248.31 194.438V187.875C248.406 183.295 246.752 182.973 242.594 182.973C237.556 182.973 237.068 184.01 236.973 187.875Z" fill="#373C3C"/>
<path d="M277.376 179.185H282.055V203.547H274.292L263.93 183.178H263.765L264.158 203.547H259.479V179.185H267.208L277.636 199.55H277.765L277.376 179.185Z" fill="#373C3C"/>
</svg>
