<svg width="95" height="95" viewBox="0 0 95 95" fill="none" xmlns="http://www.w3.org/2000/svg">
<circle cx="47.5" cy="47.5" r="47.5" fill="#25A763"/>
<path d="M35.226 21.184H33.39V26.42H35.226C36.0647 26.42 36.722 26.182 37.198 25.706C37.6967 25.23 37.946 24.5953 37.946 23.802C37.946 23.0087 37.6967 22.374 37.198 21.898C36.722 21.422 36.0647 21.184 35.226 21.184ZM37.164 33.152H33.39V39H23.836V14.418H37.3C40.496 14.418 43.0573 15.2793 44.984 17.002C46.9333 18.702 47.908 20.9687 47.908 23.802C47.908 26.6353 46.922 28.902 44.95 30.602C43.0007 32.302 40.4053 33.152 37.164 33.152Z" fill="#F5F5F5"/>
<path d="M47.226 42.184H45.39V47.42H47.226C48.0647 47.42 48.722 47.182 49.198 46.706C49.6967 46.23 49.946 45.5953 49.946 44.802C49.946 44.0087 49.6967 43.374 49.198 42.898C48.722 42.422 48.0647 42.184 47.226 42.184ZM49.164 54.152H45.39V60H35.836V35.418H49.3C52.496 35.418 55.0573 36.2793 56.984 38.002C58.9333 39.702 59.908 41.9687 59.908 44.802C59.908 47.6353 58.922 49.902 56.95 51.602C55.0007 53.302 52.4053 54.152 49.164 54.152Z" fill="#F5F5F5"/>
<path d="M57.906 59.07L55.9 71.446H59.98L57.906 59.07ZM61.714 80.966L61.306 78.28H54.574L54.166 80.966L43.83 81L49.032 56.418H66.814L72.05 80.966H61.714Z" fill="#F5F5F5"/>
</svg>
