<svg width="182" height="145" viewBox="0 0 182 145" fill="none" xmlns="http://www.w3.org/2000/svg">
<path d="M139.1 63.1H166.2C172.8 63.1 178.2 57.7 178.2 51.1V15C178.2 8.4 172.8 3 166.2 3H15.8C9.19999 3 3.79999 8.4 3.79999 15V51.1C3.79999 57.7 9.19999 63.1 15.8 63.1H139.1Z" fill="#25A763"/>
<path d="M139.1 63.1H151.1V33.3C151.1 29.8 148.3 27 144.8 27H37.2C33.7 27 30.9 29.8 30.9 33.3V63.1H139.1Z" fill="#A8F8CE"/>
<path d="M139.1 141.3V39.1H42.9V141.3" fill="#F2F2F2"/>
<path d="M163.1 63.1H151.1V111.2H163.1V63.1Z" fill="#25A763"/>
<path d="M145.1 111.2H169.2C172.5 111.2 175.2 113.9 175.2 117.2C175.2 120.5 172.5 123.2 169.2 123.2H145.1C141.8 123.2 139.1 120.5 139.1 117.2C139.1 113.9 141.8 111.2 145.1 111.2Z" fill="#25A763"/>
<path d="M30.8 63.1H18.8V111.2H30.8V63.1Z" fill="#25A763"/>
<path d="M12.8 111.2H36.9C40.2 111.2 42.9 113.9 42.9 117.2C42.9 120.5 40.2 123.2 36.9 123.2H12.8C9.49999 123.2 6.79999 120.5 6.79999 117.2C6.79999 113.9 9.49999 111.2 12.8 111.2Z" fill="#25A763"/>
<path d="M142.1 140V39.1C142.1 37.4 140.8 36.1 139.1 36.1H127.1C125.4 36.1 124.1 37.4 124.1 39.1C124.1 40.8 125.4 42.1 127.1 42.1H136.1V141.3C136.1 142.1 136.5 142.9 137.1 143.5" fill="black"/>
<path d="M44.9 143.5C45.5 142.9 45.9 142.1 45.9 141.3V42.1H130.6C132.3 42.1 133.6 40.8 133.6 39.1C133.6 37.4 132.3 36.1 130.6 36.1H42.9C41.2 36.1 39.9 37.4 39.9 39.1V140" fill="black"/>
<path d="M3.79999 24.1C5.49999 24.1 6.79999 22.8 6.79999 21.1V15.1C6.79999 10.1 10.8 6.10001 15.8 6.10001H166.1C171.1 6.10001 175.1 10.1 175.1 15.1C175.1 16.8 176.4 18.1 178.1 18.1C179.8 18.1 181.1 16.8 181.1 15.1C181.1 6.80001 174.4 0.100006 166.1 0.100006H15.8C7.49999 0.100006 0.799988 6.80001 0.799988 15.1V21.1C0.799988 22.7 2.09999 24.1 3.79999 24.1Z" fill="black"/>
<path d="M178.2 48.1C176.5 48.1 175.2 49.4 175.2 51.1C175.2 56.1 171.2 60.1 166.2 60.1H154.2V33.3C154.2 28.2 150 24 144.9 24H109C107.3 24 106 25.3 106 27C106 28.7 107.3 30 109 30H144.8C146.6 30 148.1 31.5 148.1 33.3V111.2C148.1 112.9 149.4 114.2 151.1 114.2H169.1C170.8 114.2 172.1 115.5 172.1 117.2C172.1 118.9 170.8 120.2 169.1 120.2H141.6C139.9 120.2 138.6 121.5 138.6 123.2C138.6 124.9 139.9 126.2 141.6 126.2H169.1C174.1 126.2 178.1 122.2 178.1 117.2C178.1 112.2 174.1 108.2 169.1 108.2H166.1V66.1C174.4 66.1 181.1 59.4 181.1 51.1C181.2 49.5 179.9 48.1 178.2 48.1ZM154.1 108.2V66.1H160.1V108.2H154.1Z" fill="black"/>
<path d="M15.8 66.1V108.2H12.8C7.79999 108.2 3.79999 112.2 3.79999 117.2C3.79999 122.2 7.79999 126.2 12.8 126.2H41.3C43 126.2 44.3 124.9 44.3 123.2C44.3 121.5 43 120.2 41.3 120.2H12.8C11.1 120.2 9.79999 118.9 9.79999 117.2C9.79999 115.5 11.1 114.2 12.8 114.2H30.8C32.5 114.2 33.8 112.9 33.8 111.2V33.3C33.8 31.5 35.3 30 37.1 30H119C120.7 30 122 28.7 122 27C122 25.3 120.7 24 119 24H37.1C32 24 27.8 28.2 27.8 33.3V60.1H15.8C10.8 60.1 6.79999 56.1 6.79999 51.1V19.9C6.79999 18.2 5.49999 16.9 3.79999 16.9C2.09999 16.9 0.799988 18.2 0.799988 19.9V51.1C0.799988 59.4 7.49999 66.1 15.8 66.1ZM27.9 108.2H21.9V66.1H27.9V108.2Z" fill="black"/>
<path d="M130.1 12C128.4 12 127.1 13.3 127.1 15C127.1 16.7 128.4 18 130.1 18H148.1C149.8 18 151.1 16.7 151.1 15C151.1 13.3 149.8 12 148.1 12H130.1Z" fill="black"/>
<path d="M169.2 30.1C169.2 31.8 167.9 33.1 166.2 33.1C164.5 33.1 163.2 31.8 163.2 30.1C163.2 28.4 164.5 27.1 166.2 27.1C167.8 27.1 169.2 28.4 169.2 30.1Z" fill="black"/>
<path d="M169.2 42.1C169.2 43.8 167.9 45.1 166.2 45.1C164.5 45.1 163.2 43.8 163.2 42.1C163.2 40.4 164.5 39.1 166.2 39.1C167.8 39.1 169.2 40.4 169.2 42.1Z" fill="black"/>
<path d="M18.8 30.1C18.8 31.8 17.5 33.1 15.8 33.1C14.1 33.1 12.8 31.8 12.8 30.1C12.8 28.4 14.1 27.1 15.8 27.1C17.5 27.1 18.8 28.4 18.8 30.1Z" fill="black"/>
<path d="M18.8 42.1C18.8 43.8 17.5 45.1 15.8 45.1C14.1 45.1 12.8 43.8 12.8 42.1C12.8 40.4 14.1 39.1 15.8 39.1C17.5 39.1 18.8 40.4 18.8 42.1Z" fill="black"/>
<path d="M111 84.1C119.6 89.1 122.6 100.1 117.6 108.8C112.6 117.4 101.6 120.4 92.9 115.4C92.1 114.9 91.3 114.4 90.5 113.8L94.2 94.1L108.4 82.9C109.3 83.2 110.2 83.6 111 84.1Z" fill="#FFEF00"/>
<path d="M70.2 84.1C61.6 89.1 58.6 100.1 63.6 108.8C68.6 117.4 79.6 120.4 88.3 115.4C89.1 114.9 89.9 114.4 90.7 113.8L87 94.1L72.8 82.9C71.9 83.2 71 83.6 70.2 84.1Z" fill="#DA0080"/>
<path d="M108.7 80C108.7 81 108.6 81.9 108.5 82.9L90.7 89.9L72.9 82.9C72.8 82 72.7 81 72.7 80C72.7 70 80.8 61.9 90.8 61.9C100.6 61.9 108.7 70 108.7 80Z" fill="#009CDE"/>
<path d="M97.1 96.9H84.2C83.2 103.2 85.6 109.7 90.7 113.8C95.7 109.6 98.1 103.1 97.1 96.9Z" fill="#E00109"/>
<path d="M90.6 85.7L97.1 96.9C103 94.6 107.5 89.3 108.5 82.9C102.3 80.5 95.5 81.7 90.6 85.7Z" fill="#25A763"/>
<path d="M72.8 82.8C73.8 89.2 78.3 94.6 84.2 96.8L90.7 85.6C85.7 81.7 78.9 80.5 72.8 82.8Z" fill="#544E9A"/>
<path d="M94.9 90.7C96 92.7 96.8 94.8 97.1 96.9C95.1 97.7 92.9 98.1 90.6 98.1C88.3 98.1 86.2 97.7 84.1 96.9C84.4 94.8 85.2 92.7 86.3 90.7C87.4 88.7 88.9 87.1 90.6 85.7C92.3 87 93.7 88.7 94.9 90.7Z" fill="#554C44"/>
<path d="M116.4 108C114.2 111.9 110.6 114.6 106.3 115.8C102 117 97.5 116.4 93.7 114.1C93.4 113.9 93.1 113.8 92.9 113.6C95.4 111.2 97.2 108.1 98.1 104.7C98.7 102.4 98.9 100 98.7 97.7C104 95.3 108.1 90.5 109.6 84.8C109.9 84.9 110.2 85.1 110.5 85.3C118.3 89.9 121 100.1 116.4 108ZM87.5 114.1C83.6 116.3 79.2 116.9 74.9 115.8C70.6 114.6 67 111.9 64.8 108C60.2 100 62.9 89.8 70.9 85.2C71.2 85 71.5 84.9 71.8 84.7C73.3 90.5 77.3 95.2 82.7 97.6C82.5 99.9 82.6 102.3 83.3 104.6C84.2 108 86 111.1 88.5 113.5C88.1 113.8 87.8 114 87.5 114.1ZM96.1 90C95.2 88.4 94.1 87 92.9 85.8C95.6 84 98.8 83.1 102.1 83.1C103.7 83.1 105.3 83.3 106.9 83.8C105.8 88.7 102.5 92.7 98.1 94.9C97.6 93.2 97 91.5 96.1 90ZM83.1 94.9C78.7 92.7 75.5 88.6 74.3 83.8C79.1 82.3 84.2 83.2 88.3 85.8C87.1 87 86 88.4 85.1 90C84.2 91.5 83.6 93.2 83.1 94.9ZM90.6 96.6C88.9 96.6 87.3 96.3 85.7 95.9C86.1 94.3 86.7 92.8 87.5 91.3C88.3 89.8 89.4 88.6 90.5 87.5C91.7 88.6 92.7 89.9 93.5 91.3C94.3 92.7 94.9 94.3 95.3 95.9C93.9 96.4 92.3 96.6 90.6 96.6ZM95.3 104C94.5 107.1 92.8 109.8 90.6 111.9C88.3 109.8 86.7 107.1 85.9 104C85.4 102.2 85.3 100.5 85.4 98.7C87.1 99.2 88.8 99.4 90.7 99.4C92.5 99.4 94.3 99.1 96 98.7C96 100.5 95.8 102.3 95.3 104ZM73.9 80C73.9 70.8 81.4 63.3 90.6 63.3C99.8 63.3 107.3 70.8 107.3 80C107.3 80.3 107.3 80.7 107.3 81C101.6 79.4 95.4 80.5 90.7 84C85.9 80.6 79.8 79.4 74.1 81C73.9 80.6 73.9 80.3 73.9 80ZM111.7 82.9C111.1 82.6 110.5 82.3 109.9 82C110 81.4 110 80.7 110 80C110 69.3 101.3 60.5 90.5 60.5C79.8 60.5 71 69.2 71 80C71 80.7 71 81.3 71.1 82C70.5 82.3 69.9 82.6 69.3 82.9C60 88.3 56.8 100.2 62.2 109.5C64.8 114 69 117.2 74 118.6C75.7 119 77.4 119.3 79.1 119.3C82.5 119.3 85.8 118.4 88.8 116.7C89.4 116.4 89.9 116 90.5 115.6C91 116 91.6 116.3 92.2 116.7C95.2 118.4 98.5 119.3 101.9 119.3C103.6 119.3 105.3 119.1 107 118.6C112 117.3 116.2 114 118.8 109.5C124.2 100.1 121 88.2 111.7 82.9Z" fill="#041215"/>
<path d="M121.7 94.4C120.3 89.1 116.9 84.7 112.2 82C111.8 81.8 111.4 81.5 111 81.3C111 80.8 111 80.4 111 79.9C111 68.7 101.9 59.5 90.6 59.5C79.4 59.5 70.2 68.6 70.2 79.9C70.2 80.4 70.2 80.8 70.2 81.3C69.8 81.5 69.4 81.7 69 82C64.3 84.7 60.9 89.1 59.5 94.4C58.1 99.7 58.8 105.2 61.5 109.9C64.2 114.6 68.6 118 73.9 119.4C75.6 119.9 77.4 120.1 79.2 120.1C82.7 120.1 86.3 119.2 89.4 117.4C89.8 117.2 90.2 116.9 90.6 116.7C91 117 91.4 117.2 91.8 117.4C94.9 119.2 98.4 120.1 102 120.1C103.8 120.1 105.6 119.9 107.3 119.4C112.6 118 117 114.6 119.7 109.9C122.4 105.2 123.1 99.7 121.7 94.4ZM118 109C115.5 113.3 111.5 116.3 106.8 117.6C105.2 118 103.6 118.2 102 118.2C98.8 118.2 95.6 117.3 92.8 115.7C92.3 115.4 91.7 115 91.2 114.7L90.7 114.3L90.2 114.7C89.7 115.1 89.2 115.4 88.6 115.7C85.8 117.3 82.6 118.2 79.4 118.2C77.8 118.2 76.2 118 74.6 117.6C69.8 116.3 65.8 113.3 63.4 109C60.9 104.7 60.3 99.7 61.6 95C62.9 90.2 65.9 86.2 70.2 83.8C70.7 83.5 71.3 83.2 71.9 82.9L72.5 82.6L72.4 81.9C72.3 81.3 72.3 80.6 72.3 80C72.3 69.8 80.6 61.5 90.8 61.5C101 61.5 109.3 69.8 109.3 80C109.3 80.6 109.3 81.3 109.2 81.9L109.1 82.6L109.7 82.9C110.3 83.2 110.8 83.4 111.4 83.8C115.7 86.3 118.7 90.3 120 95C121.1 99.7 120.5 104.7 118 109Z" fill="black"/>
<path d="M90.6 97.6C92.3 97.6 94.1 97.3 95.7 96.8L96.5 96.5L96.3 95.6C95.9 93.9 95.3 92.3 94.4 90.8C93.5 89.3 92.4 87.9 91.2 86.7L90.6 86.1L90 86.7C88.7 87.9 87.7 89.2 86.8 90.8C85.9 92.3 85.3 93.9 84.9 95.6L84.7 96.5L85.5 96.8C87.1 97.3 88.9 97.6 90.6 97.6ZM88.4 91.8C89 90.7 89.8 89.7 90.6 88.8C91.5 89.7 92.2 90.7 92.8 91.8C93.4 92.9 93.9 94 94.3 95.2C91.9 95.8 89.3 95.8 86.9 95.2C87.2 94.1 87.7 92.9 88.4 91.8Z" fill="black"/>
<path d="M73.1 82.2L74.2 81.9C79.6 80.4 85.5 81.5 90 84.7L90.5 85.1L91 84.7C95.5 81.4 101.5 80.4 106.8 81.9L107.9 82.2L108 81C108 80.6 108 80.3 108 80C108 70.3 100.1 62.4 90.4 62.4C80.7 62.4 73 70.3 73 80C73 80.3 73 80.7 73 81L73.1 82.2ZM90.6 64.3C99.2 64.3 106.2 71.2 106.3 79.8C100.9 78.6 95.2 79.7 90.6 82.8C87.2 80.5 83.2 79.3 79.1 79.3C77.7 79.3 76.2 79.4 74.8 79.8C75 71.2 82 64.3 90.6 64.3Z" fill="black"/>
<path d="M89 86.5L89.8 85.7L88.8 85.1C84.4 82.2 79 81.4 74 83L73.2 83.3L73.4 84.2C74.6 89.3 78 93.6 82.7 95.9L83.7 96.4L84 95.3C84.4 93.7 85.1 92.1 85.9 90.6C86.8 89 87.8 87.6 89 86.5ZM82.6 93.5C79.2 91.5 76.7 88.2 75.6 84.4C79.5 83.5 83.5 84 87 86C86 87.1 85.2 88.3 84.4 89.5C83.6 90.8 83 92.1 82.6 93.5Z" fill="black"/>
<path d="M97.5 96.2L98.5 95.7C103.2 93.3 106.6 89.1 107.8 84L108 83.1L107.2 82.8C105.5 82.3 103.8 82 102.1 82C98.6 82 95.3 83 92.4 84.9L91.4 85.5L92.2 86.3C93.4 87.5 94.4 88.8 95.3 90.3C96.1 91.8 96.8 93.3 97.2 95L97.5 96.2ZM94.3 86C96.7 84.7 99.3 84 102 84C103.2 84 104.5 84.1 105.7 84.4C104.6 88.2 102.1 91.4 98.7 93.5C98.3 92.1 97.7 90.8 96.9 89.5C96.1 88.2 95.3 87.1 94.3 86Z" fill="black"/>
<path d="M96.2 104.3C96.7 102.5 96.9 100.6 96.8 98.7L96.7 97.5L95.6 97.8C92.4 98.7 88.8 98.7 85.6 97.8L84.5 97.5L84.4 98.7C84.3 100.6 84.5 102.5 85 104.3C85.9 107.5 87.6 110.4 90 112.6L90.6 113.2L91.2 112.6C93.6 110.3 95.4 107.5 96.2 104.3ZM90.6 110.6C88.8 108.7 87.5 106.4 86.8 103.8C86.5 102.5 86.3 101.2 86.3 99.9C89.1 100.5 92.1 100.5 95 99.9C95 101.2 94.8 102.5 94.5 103.8C93.7 106.3 92.4 108.7 90.6 110.6Z" fill="black"/>
<path d="M110.8 84.5C110.5 84.3 110.2 84.2 109.9 84L108.9 83.5L108.6 84.6C107.2 90 103.3 94.6 98.3 96.9L97.7 97.2L97.8 97.9C98 100.1 97.8 102.4 97.3 104.6C96.4 107.8 94.7 110.7 92.4 113.1L91.6 113.9L92.6 114.5C92.9 114.7 93.2 114.9 93.5 115C96.2 116.6 99.2 117.4 102.3 117.4C103.8 117.4 105.4 117.2 106.9 116.8C111.4 115.6 115.2 112.7 117.6 108.6C122.1 100.1 119.2 89.3 110.8 84.5ZM115.6 107.6C113.5 111.2 110.1 113.8 106.1 114.9C102.1 116 97.9 115.4 94.4 113.4C96.6 111 98.2 108.1 99 105C99.6 102.8 99.8 100.6 99.7 98.3C104.7 95.9 108.5 91.4 110.2 86.2C117.4 90.6 119.9 100.1 115.6 107.6Z" fill="black"/>
<path d="M84.1 104.5C83.5 102.3 83.3 100.1 83.6 97.8L83.7 97.1L83.1 96.8C78 94.5 74.1 89.9 72.8 84.5L72.5 83.4L71.5 83.9C71.2 84.1 70.9 84.2 70.6 84.4C62.2 89.3 59.3 100 64.2 108.4C66.6 112.5 70.3 115.4 74.9 116.6C76.4 117 78 117.2 79.5 117.2C82.6 117.2 85.6 116.4 88.3 114.8C88.6 114.6 88.9 114.5 89.2 114.3L90.2 113.7L89.4 112.9C86.7 110.6 85 107.7 84.1 104.5ZM75.1 114.9C71 113.8 67.7 111.2 65.6 107.6C61.3 100.2 63.8 90.6 71.2 86.2C72.9 91.4 76.7 95.9 81.7 98.3C81.5 100.5 81.8 102.8 82.4 105C83.2 108.2 84.8 111.1 87 113.4C83.3 115.4 79.1 116 75.1 114.9Z" fill="black"/>
<path d="M139.1 144.4H42.9C41.2 144.4 39.9 143.1 39.9 141.4C39.9 139.7 41.2 138.4 42.9 138.4H139.1C140.8 138.4 142.1 139.7 142.1 141.4C142.1 143.1 140.7 144.4 139.1 144.4Z" fill="black"/>
</svg>
