<svg width="94" height="90" viewBox="0 0 94 90" fill="none" xmlns="http://www.w3.org/2000/svg">
<path d="M93.64 58.24C93.62 58.11 93.58 57.99 93.53 57.88C93.53 57.86 93.51 57.84 93.5 57.83C93.45 57.73 93.39 57.63 93.32 57.55C93.31 57.54 93.3 57.52 93.29 57.51L83.67 46.64V5.11C83.67 2.67 81.69 0.690002 79.25 0.690002H15.09C12.65 0.690002 10.67 2.67 10.67 5.11V46.63L1.04999 57.5C1.04999 57.5 1.02999 57.53 1.01999 57.54C0.949993 57.63 0.889993 57.72 0.839993 57.82C0.839993 57.84 0.819993 57.86 0.809993 57.87C0.759993 57.98 0.719993 58.1 0.699993 58.23C0.699993 58.26 0.699993 58.29 0.699993 58.32C0.699993 58.37 0.679993 58.43 0.679993 58.48V63.36C0.679993 65.58 2.47999 67.38 4.69999 67.38H45.5C46.44 67.83 47.42 68.23 48.45 68.55C50.7 69.26 52.97 69.6 55.21 69.6C56.77 69.6 58.31 69.42 59.81 69.1L68.39 85.65C69.55 87.88 71.82 89.16 74.17 89.16C75.18 89.16 76.2 88.93 77.15 88.43C80.33 86.78 81.58 82.85 79.93 79.67L73.55 67.38H89.65C91.87 67.38 93.67 65.58 93.67 63.36V58.48C93.67 58.42 93.66 58.37 93.65 58.32C93.65 58.29 93.65 58.26 93.65 58.23L93.64 58.24ZM90.67 63.38C90.67 63.94 90.21 64.4 89.65 64.4H72L71.22 62.9C72.1 62.01 72.9 61.04 73.63 60H90.67V63.38ZM75.77 85.79C74.06 86.68 71.94 86.01 71.05 84.29L62.75 68.29C64.96 67.5 67.03 66.37 68.9 64.94L77.27 81.07C78.16 82.78 77.49 84.9 75.77 85.79ZM3.66999 63.37V59.99H36.82C37.95 61.62 39.3 63.1 40.84 64.39H4.68999C4.12999 64.39 3.66999 63.93 3.66999 63.37ZM13.67 5.11C13.67 4.33 14.31 3.69 15.09 3.69H79.25C80.03 3.69 80.67 4.33 80.67 5.11V45.69H77.6C77.4 42.64 76.58 39.64 75.13 36.85C73.04 32.82 69.85 29.59 65.95 27.48V21.57C65.95 20.89 65.5 20.3 64.85 20.12L62.2 19.39C62.01 18.85 61.79 18.32 61.55 17.81L62.91 15.42C63.24 14.83 63.15 14.09 62.67 13.62L58.25 9.2C57.77 8.72 57.03 8.62 56.45 8.96L54.06 10.32C53.55 10.07 53.02 9.86 52.48 9.67L51.75 7.02C51.57 6.37 50.98 5.92 50.3 5.92H44.04C43.36 5.92 42.77 6.37 42.59 7.02L41.86 9.67C41.32 9.86 40.79 10.08 40.28 10.32L37.89 8.96C37.3 8.63 36.56 8.72 36.09 9.2L31.67 13.62C31.19 14.1 31.09 14.84 31.43 15.42L32.79 17.81C32.54 18.32 32.33 18.85 32.14 19.39L29.49 20.12C28.84 20.3 28.39 20.89 28.39 21.57V27.83C28.39 28.51 28.84 29.1 29.49 29.28L32.14 30.01C32.33 30.55 32.55 31.08 32.79 31.59L31.43 33.98C31.1 34.57 31.19 35.31 31.67 35.78L34.5 38.61C34.26 39.2 34.02 39.8 33.83 40.42C33.27 42.18 32.95 43.95 32.83 45.71H13.67V5.11ZM12.85 48.69H32.85C33.05 51.6 33.82 54.41 35.07 56.99H5.49999L12.84 48.69H12.85ZM62.01 25.79C59.71 25.06 57.35 24.73 55.01 24.75C55.01 24.73 55.01 24.71 55.01 24.69C55.01 20.37 51.5 16.86 47.18 16.86C42.86 16.86 39.35 20.37 39.35 24.69C39.35 26.59 40.03 28.34 41.16 29.69C39.05 31.38 37.3 33.44 35.93 35.76L34.61 34.44L35.81 32.34C36.07 31.89 36.07 31.33 35.82 30.88C35.38 30.08 35.03 29.22 34.76 28.33C34.61 27.83 34.22 27.44 33.72 27.31L31.39 26.67V22.7L33.72 22.06C34.22 21.92 34.62 21.54 34.76 21.04C35.02 20.15 35.38 19.29 35.82 18.49C36.07 18.03 36.07 17.48 35.81 17.03L34.61 14.93L37.42 12.12L39.52 13.32C39.97 13.58 40.53 13.58 40.98 13.33C41.78 12.89 42.64 12.54 43.53 12.27C44.03 12.12 44.42 11.73 44.55 11.23L45.19 8.9H49.16L49.8 11.23C49.94 11.73 50.32 12.13 50.82 12.27C51.71 12.53 52.57 12.89 53.37 13.33C53.83 13.58 54.38 13.57 54.83 13.32L56.93 12.12L59.74 14.93L58.54 17.03C58.28 17.48 58.28 18.04 58.53 18.49C58.97 19.29 59.32 20.15 59.59 21.04C59.74 21.54 60.13 21.93 60.63 22.06L62.96 22.7V26.14C62.64 26.02 62.33 25.89 62.01 25.79ZM43.66 27.98C42.85 27.12 42.34 25.96 42.34 24.69C42.34 22.03 44.51 19.86 47.17 19.86C49.83 19.86 52 22.03 52 24.69C52 24.79 51.98 24.89 51.97 24.99C49.53 25.35 47.14 26.09 44.89 27.26C44.46 27.48 44.06 27.74 43.65 27.98H43.66ZM75.39 56.99C75.86 56.02 76.28 55.01 76.61 53.96C77.16 52.23 77.47 50.46 77.59 48.69H81.49L88.83 56.99H75.38H75.39ZM49.35 65.71C39.13 62.47 33.46 51.53 36.69 41.31C38.26 36.36 41.66 32.32 46.27 29.93C49.08 28.47 52.12 27.74 55.2 27.74C57.17 27.74 59.16 28.04 61.09 28.66C66.04 30.23 70.08 33.63 72.47 38.24C74.86 42.85 75.31 48.11 73.74 53.06C70.5 63.28 59.56 68.95 49.34 65.72L49.35 65.71Z" fill="#25A763"/>
<path d="M55.24 61.51C57.5 61.51 59.75 60.97 61.82 59.89C68.83 56.25 71.58 47.59 67.94 40.58C64.3 33.57 55.64 30.82 48.63 34.46C41.62 38.1 38.87 46.76 42.51 53.77C44.27 57.17 47.25 59.67 50.9 60.83C52.33 61.28 53.79 61.51 55.24 61.51ZM45.17 52.39C43.78 49.7 43.51 46.64 44.43 43.75C45.34 40.87 47.33 38.51 50.01 37.12C51.65 36.27 53.42 35.84 55.21 35.84C56.36 35.84 57.52 36.02 58.65 36.38C61.53 37.29 63.89 39.28 65.28 41.96C68.16 47.5 65.98 54.35 60.44 57.23C57.75 58.62 54.69 58.89 51.8 57.97C48.92 57.06 46.56 55.07 45.17 52.39Z" fill="#25A763"/>
</svg>
