<svg width="92" height="72" viewBox="0 0 92 72" fill="none" xmlns="http://www.w3.org/2000/svg">
<path d="M24.465 5.422C24.465 6.05481 23.5158 6.05481 23.5158 5.422C23.5158 4.78528 24.465 4.78528 24.465 5.422Z" fill="#25A763"/>
<path d="M15.66 5.895C15.9217 5.895 16.1327 5.68016 16.1327 5.41844C16.1327 5.15672 15.9217 4.94188 15.66 4.94188C15.3983 4.94188 15.1834 5.15672 15.1834 5.41844C15.1873 5.68016 15.3983 5.895 15.66 5.895Z" fill="#25A763"/>
<path d="M7.805 5.422C7.805 6.05481 6.85578 6.05481 6.85578 5.422C6.85578 4.78528 7.805 4.78528 7.805 5.422Z" fill="#25A763"/>
<path d="M0.7188 12.508V71.938H91.3438V12.508H0.7188ZM36.5858 16.5392H75.6878C76.5511 16.5392 77.2503 17.2384 77.2503 18.1017C77.2503 18.965 76.5511 19.6642 75.6878 19.6642H36.5858C35.7225 19.6642 35.0233 18.965 35.0233 18.1017C35.0233 17.2384 35.7225 16.5392 36.5858 16.5392ZM36.5858 22.9415H82.3668C83.2301 22.9415 83.9293 23.6407 83.9293 24.504C83.9293 25.3673 83.2301 26.0665 82.3668 26.0665H36.5858C35.7225 26.0665 35.0233 25.3673 35.0233 24.504C35.0233 23.6407 35.7225 22.9415 36.5858 22.9415ZM24.3278 16.1837C24.9372 15.5743 25.9255 15.5743 26.5387 16.1837L29.6442 19.2892C30.2536 19.8986 30.2536 20.8869 29.6442 21.5001L26.5661 24.5782C26.2614 24.8829 25.863 25.0352 25.4606 25.0352C25.0622 25.0352 24.6598 24.8829 24.3551 24.5782C23.7457 23.9688 23.7457 22.9805 24.3551 22.3673L26.3278 20.3946L24.3278 18.3946C23.7145 17.7852 23.7145 16.7969 24.3278 16.1837ZM14.3048 22.4962L19.2501 16.3126C19.7892 15.6407 20.7735 15.5274 21.4454 16.0704C22.1173 16.6095 22.2266 17.5938 21.6876 18.2657L16.7423 24.4493C16.4337 24.8321 15.9806 25.0352 15.5196 25.0352C15.1758 25.0352 14.8321 24.9259 14.543 24.6915C13.8751 24.1524 13.7657 23.172 14.3048 22.4962ZM14.5704 29.3439H54.9254C55.7887 29.3439 56.4879 30.0431 56.4879 30.9064C56.4879 31.7697 55.7887 32.4689 54.9254 32.4689H14.5704C13.7071 32.4689 13.0079 31.7697 13.0079 30.9064C13.0079 30.0431 13.7071 29.3439 14.5704 29.3439ZM14.5704 35.7501H82.3674C83.2307 35.7501 83.9299 36.4493 83.9299 37.3126C83.9299 38.1759 83.2307 38.8751 82.3674 38.8751H14.5704C13.7071 38.8751 13.0079 38.1759 13.0079 37.3126C13.0079 36.4454 13.7071 35.7501 14.5704 35.7501ZM14.5704 42.1524H68.3204C69.1837 42.1524 69.8829 42.8516 69.8829 43.7149C69.8829 44.5782 69.1837 45.2774 68.3204 45.2774H14.5704C13.7071 45.2774 13.0079 44.5782 13.0079 43.7149C13.0079 42.8516 13.7071 42.1524 14.5704 42.1524ZM8.70322 64.4884H6.24232C5.37904 64.4884 4.67982 63.7892 4.67982 62.9259C4.67982 62.0626 5.37904 61.3634 6.24232 61.3634H8.70322C9.5665 61.3634 10.2657 62.0626 10.2657 62.9259C10.2657 63.7892 9.5665 64.4884 8.70322 64.4884ZM8.70322 58.0861H6.24232C5.37904 58.0861 4.67982 57.3869 4.67982 56.5236C4.67982 55.6603 5.37904 54.9611 6.24232 54.9611H8.70322C9.5665 54.9611 10.2657 55.6603 10.2657 56.5236C10.2657 57.3869 9.5665 58.0861 8.70322 58.0861ZM8.70322 51.6799H6.24232C5.37904 51.6799 4.67982 50.9807 4.67982 50.1174C4.67982 49.2541 5.37904 48.5549 6.24232 48.5549H8.70322C9.5665 48.5549 10.2657 49.2541 10.2657 50.1174C10.2657 50.9846 9.5665 51.6799 8.70322 51.6799ZM8.70322 45.2776H6.24232C5.37904 45.2776 4.67982 44.5784 4.67982 43.7151C4.67982 42.8518 5.37904 42.1526 6.24232 42.1526H8.70322C9.5665 42.1526 10.2657 42.8518 10.2657 43.7151C10.2657 44.5784 9.5665 45.2776 8.70322 45.2776ZM8.70322 38.8753H6.24232C5.37904 38.8753 4.67982 38.1761 4.67982 37.3128C4.67982 36.4495 5.37904 35.7503 6.24232 35.7503H8.70322C9.5665 35.7503 10.2657 36.4495 10.2657 37.3128C10.2657 38.1761 9.5665 38.8753 8.70322 38.8753ZM8.70322 32.4691H6.24232C5.37904 32.4691 4.67982 31.7699 4.67982 30.9066C4.67982 30.0433 5.37904 29.3441 6.24232 29.3441H8.70322C9.5665 29.3441 10.2657 30.0433 10.2657 30.9066C10.2657 31.7738 9.5665 32.4691 8.70322 32.4691ZM10.4259 22.3671C11.0353 22.9765 11.0353 23.9648 10.4259 24.578C10.1212 24.8827 9.7228 25.035 9.32042 25.035C8.92198 25.035 8.51964 24.8827 8.21492 24.578L5.13682 21.4999C4.52744 20.8905 4.52744 19.9022 5.13682 19.289L8.24232 16.1835C8.85169 15.5741 9.84002 15.5741 10.4532 16.1835C11.0626 16.7929 11.0626 17.7812 10.4532 18.3944L8.45322 20.3944L10.4259 22.3671ZM52.0239 64.4881H14.5709C13.7076 64.4881 13.0084 63.7889 13.0084 62.9256C13.0084 62.0623 13.7076 61.3631 14.5709 61.3631H52.0239C52.8872 61.3631 53.5864 62.0623 53.5864 62.9256C53.5903 63.7889 52.8911 64.4881 52.0239 64.4881ZM13.0079 56.5233C13.0079 55.66 13.7071 54.9608 14.5704 54.9608H47.2264C48.0897 54.9608 48.7889 55.66 48.7889 56.5233C48.7889 57.3866 48.0897 58.0858 47.2264 58.0858H14.5704C13.7071 58.0858 13.0079 57.3866 13.0079 56.5233ZM65.8129 63.8983C66.4223 64.5077 66.4223 65.496 65.8129 66.1092C65.5082 66.4139 65.1098 66.5662 64.7074 66.5662C64.309 66.5662 63.9066 66.4139 63.6019 66.1092L60.5238 63.0311C60.2308 62.7381 60.0668 62.3436 60.0668 61.9256C60.0668 61.5115 60.2308 61.1131 60.5238 60.8201L63.6293 57.7146C64.2387 57.1052 65.227 57.1052 65.8402 57.7146C66.4496 58.324 66.4496 59.3123 65.8402 59.9255L63.8402 61.9255L65.8129 63.8983ZM77.0789 59.7967L72.1336 65.9803C71.825 66.3631 71.3719 66.5662 70.9109 66.5662C70.5672 66.5662 70.2234 66.4569 69.9344 66.2225C69.2625 65.6834 69.1531 64.6991 69.6922 64.0272L74.6375 57.8436C75.1765 57.1717 76.1609 57.0623 76.8328 57.6014C77.5085 58.1405 77.618 59.1248 77.0789 59.7967ZM77.6961 51.6795H14.5711C13.7078 51.6795 13.0086 50.9803 13.0086 50.117C13.0086 49.2537 13.7078 48.5545 14.5711 48.5545H77.6961C78.5594 48.5545 79.2586 49.2537 79.2586 50.117C79.2586 50.9842 78.5633 51.6795 77.6961 51.6795ZM85.0281 63.0315L81.95 66.1096C81.6453 66.4143 81.2469 66.5666 80.8445 66.5666C80.4461 66.5666 80.0437 66.4143 79.739 66.1096C79.1296 65.5002 79.1296 64.5119 79.739 63.8987L81.7117 61.926L79.7117 59.926C79.1023 59.3166 79.1023 58.3283 79.7117 57.7151C80.3211 57.1057 81.3094 57.1057 81.9226 57.7151L85.0281 60.8206C85.3211 61.1136 85.4851 61.5081 85.4851 61.9261C85.4851 62.3441 85.3211 62.7385 85.0281 63.0315Z" fill="#25A763"/>
<path d="M91.344 9.383V0.0626984H0.718998V9.383H91.344ZM69.356 3.8596H83.922C84.7853 3.8596 85.4845 4.55882 85.4845 5.4221C85.4845 6.28538 84.7853 6.9846 83.922 6.9846H69.356C68.4927 6.9846 67.7935 6.28538 67.7935 5.4221C67.7935 4.55491 68.4927 3.8596 69.356 3.8596ZM23.989 2.7698C25.4499 2.7698 26.6374 3.9573 26.6374 5.4182C26.6374 6.8791 25.4499 8.0666 23.989 8.0666C22.5281 8.0666 21.3406 6.8791 21.3406 5.4182C21.3406 3.9573 22.5281 2.7698 23.989 2.7698ZM15.6609 2.7698C17.1218 2.7698 18.3093 3.9573 18.3093 5.4182C18.3093 6.8791 17.1218 8.0666 15.6609 8.0666C14.2 8.0666 13.0086 6.8791 13.0086 5.4182C13.0086 3.9573 14.2 2.7698 15.6609 2.7698ZM7.3328 2.7698C8.7937 2.7698 9.9812 3.9573 9.9812 5.4182C9.9812 6.8791 8.7937 8.0666 7.3328 8.0666C5.8719 8.0666 4.6844 6.8791 4.6844 5.4182C4.68049 3.9573 5.868 2.7698 7.3328 2.7698Z" fill="#25A763"/>
</svg>
